<svg xmlns="http://www.w3.org/2000/svg" xmlns:xlink="http://www.w3.org/1999/xlink" width="1080" zoomAndPan="magnify" viewBox="0 0 810 809.999993" height="1080" preserveAspectRatio="xMidYMid meet" version="1.0"><path fill="#e7e8ff" d="M 246.382812 745.066406 L 577.167969 745.066406 C 638.574219 745.066406 692.589844 704.429688 709.6875 645.367188 L 720.621094 607.605469 C 734.953125 558.09375 708.023438 506.019531 659.375 489.167969 C 592.1875 465.898438 572.226562 380.402344 622.144531 329.714844 L 627.152344 324.632812 C 676.878906 274.132812 660.734375 189.414062 595.925781 160.804688 L 407.339844 77.554688 C 350.597656 52.507812 285.410156 55.554688 231.242188 85.78125 L 200.449219 102.96875 C 136.808594 138.484375 106.648438 213.738281 128.113281 283.457031 C 144.976562 338.230469 130.175781 397.851562 89.664062 438.34375 L 87.128906 440.875 C 21.664062 506.304688 24.957031 613.492188 94.3125 674.769531 L 119.511719 697.03125 C 154.546875 727.984375 199.660156 745.066406 246.382812 745.066406 Z M 246.382812 745.066406 " fill-opacity="1" fill-rule="nonzero"/><path fill="#032068" d="M 718.089844 614.265625 C 654.070312 646.023438 627.453125 713.78125 622.984375 744.164062 L 646.984375 744.164062 C 700.742188 706.742188 720.480469 648.417969 723.972656 618.304688 C 724.347656 615.039062 721.035156 612.804688 718.089844 614.265625 Z M 718.089844 614.265625 " fill-opacity="1" fill-rule="nonzero"/><path fill="#ffffff" d="M 700.867188 518.117188 C 628.984375 552.996094 607.878906 681.980469 606.367188 743.242188 L 638.675781 743.242188 C 713.257812 635.59375 715.546875 552.917969 706.542969 520.609375 C 705.863281 518.152344 703.160156 517.007812 700.867188 518.117188 Z M 700.867188 518.117188 " fill-opacity="1" fill-rule="nonzero"/><path fill="#032068" d="M 704.398438 521.207031 C 704.105469 520.15625 702.941406 519.589844 701.839844 520.125 C 666.75 537.148438 643.75 577.355469 629.347656 621.480469 C 615.332031 664.410156 609.632812 710.503906 608.660156 741.015625 L 637.507812 741.015625 C 711.179688 634.210938 713.144531 552.609375 704.398438 521.207031 Z M 699.894531 516.113281 C 703.378906 514.425781 707.621094 516.152344 708.695312 520.011719 C 717.921875 553.132812 715.351562 636.488281 640.507812 744.511719 L 639.84375 745.472656 L 604.085938 745.472656 L 604.140625 743.1875 C 604.898438 712.390625 610.578125 664.609375 625.109375 620.097656 C 639.605469 575.691406 663.101562 533.964844 699.894531 516.113281 Z M 699.894531 516.113281 " fill-opacity="1" fill-rule="evenodd"/><path fill="#032068" d="M 697.070312 544.652344 L 667.480469 624.535156 L 684.824219 616.613281 L 686.675781 620.664062 L 665.296875 630.433594 L 638.46875 702.863281 L 653.542969 696.867188 L 655.1875 701.011719 L 636.386719 708.488281 L 623.226562 744.015625 L 619.046875 742.46875 L 645.738281 670.40625 L 632.023438 639.855469 L 636.09375 638.03125 L 647.945312 664.441406 L 676.902344 586.265625 L 669.773438 562.988281 L 674.035156 561.683594 L 679.453125 579.375 L 692.890625 543.101562 Z M 697.070312 544.652344 " fill-opacity="1" fill-rule="evenodd"/><path fill="#f4ad5e" d="M 702.539062 166.34375 L 692.976562 178.589844 C 692.394531 179.335938 691.449219 179.695312 690.515625 179.519531 L 678.699219 177.304688 C 676.160156 176.828125 674.625 180.023438 676.585938 181.710938 L 685.875 189.691406 C 686.554688 190.273438 686.875 191.167969 686.71875 192.050781 L 684.386719 205.207031 C 683.949219 207.679688 686.992188 209.210938 688.71875 207.382812 L 698.257812 197.273438 C 698.816406 196.679688 699.628906 196.394531 700.4375 196.503906 L 711.476562 198.007812 C 713.964844 198.347656 715.371094 195.246094 713.480469 193.59375 L 705.273438 186.429688 C 704.613281 185.851562 704.296875 184.976562 704.4375 184.113281 L 707.027344 168.308594 C 707.453125 165.722656 704.148438 164.277344 702.539062 166.34375 Z M 702.539062 166.34375 " fill-opacity="1" fill-rule="nonzero"/><path fill="#f4ad5e" d="M 66.160156 296.976562 L 72.308594 305.21875 C 72.679688 305.71875 72.742188 306.382812 72.464844 306.933594 L 68.933594 313.964844 C 68.175781 315.476562 69.949219 317.023438 71.382812 316.097656 L 78.15625 311.707031 C 78.652344 311.386719 79.285156 311.351562 79.820312 311.609375 L 87.84375 315.46875 C 89.351562 316.195312 90.878906 314.558594 90.011719 313.140625 L 85.230469 305.300781 C 84.953125 304.839844 84.914062 304.277344 85.128906 303.789062 L 88.0625 297.117188 C 88.726562 295.617188 86.988281 294.164062 85.589844 295.054688 L 79.527344 298.914062 C 79.042969 299.222656 78.425781 299.261719 77.894531 299.015625 L 68.222656 294.511719 C 66.640625 293.773438 65.121094 295.585938 66.160156 296.976562 Z M 66.160156 296.976562 " fill-opacity="1" fill-rule="nonzero"/><path fill="#f4ad5e" d="M 171.253906 219.109375 L 167.207031 213.667969 C 166.960938 213.335938 166.558594 213.175781 166.164062 213.253906 L 161.167969 214.238281 C 160.089844 214.449219 159.441406 213.03125 160.269531 212.28125 L 164.203125 208.734375 C 164.488281 208.476562 164.625 208.074219 164.558594 207.683594 L 163.570312 201.839844 C 163.386719 200.738281 164.675781 200.058594 165.402344 200.871094 L 169.441406 205.363281 C 169.675781 205.628906 170.019531 205.753906 170.363281 205.707031 L 175.03125 205.039062 C 176.085938 204.886719 176.683594 206.265625 175.882812 207 L 172.40625 210.183594 C 172.128906 210.441406 171.996094 210.828125 172.054688 211.214844 L 173.148438 218.238281 C 173.328125 219.386719 171.933594 220.027344 171.253906 219.109375 Z M 171.253906 219.109375 " fill-opacity="1" fill-rule="nonzero"/><path fill="#ffffff" d="M 220.65625 140.242188 C 220.65625 132.027344 227.316406 125.371094 235.527344 125.371094 L 609.273438 125.371094 C 617.488281 125.371094 624.148438 132.027344 624.148438 140.242188 L 624.148438 730.195312 C 624.148438 738.40625 617.488281 745.066406 609.273438 745.066406 L 235.527344 745.066406 C 227.316406 745.066406 220.65625 738.40625 220.65625 730.195312 Z M 220.65625 140.242188 " fill-opacity="1" fill-rule="nonzero"/><path fill="#032068" d="M 218.429688 140.242188 C 218.429688 130.796875 226.085938 123.140625 235.53125 123.140625 L 609.277344 123.140625 C 618.722656 123.140625 626.378906 130.796875 626.378906 140.242188 L 626.378906 730.195312 C 626.378906 739.640625 618.722656 747.296875 609.277344 747.296875 L 235.53125 747.296875 C 226.085938 747.296875 218.429688 739.640625 218.429688 730.195312 Z M 235.53125 127.597656 C 228.546875 127.597656 222.886719 133.257812 222.886719 140.242188 L 222.886719 730.195312 C 222.886719 737.175781 228.546875 742.835938 235.53125 742.835938 L 609.277344 742.835938 C 616.257812 742.835938 621.921875 737.175781 621.921875 730.195312 L 621.921875 140.242188 C 621.921875 133.257812 616.257812 127.597656 609.277344 127.597656 Z M 235.53125 127.597656 " fill-opacity="1" fill-rule="evenodd"/><path fill="#032068" d="M 220.65625 140.242188 C 220.65625 132.027344 227.316406 125.371094 235.527344 125.371094 L 609.273438 125.371094 C 617.488281 125.371094 624.148438 132.027344 624.148438 140.242188 L 624.148438 176.640625 L 220.65625 176.640625 Z M 220.65625 140.242188 " fill-opacity="1" fill-rule="nonzero"/><path fill="#ffffff" d="M 267.710938 151.371094 C 267.710938 157.523438 262.71875 162.511719 256.566406 162.511719 C 250.414062 162.511719 245.421875 157.523438 245.421875 151.371094 C 245.421875 145.214844 250.414062 140.226562 256.566406 140.226562 C 262.71875 140.226562 267.710938 145.214844 267.710938 151.371094 Z M 267.710938 151.371094 " fill-opacity="1" fill-rule="nonzero"/><path fill="#ffffff" d="M 304.855469 151.371094 C 304.855469 157.523438 299.867188 162.511719 293.710938 162.511719 C 287.558594 162.511719 282.570312 157.523438 282.570312 151.371094 C 282.570312 145.214844 287.558594 140.226562 293.710938 140.226562 C 299.867188 140.226562 304.855469 145.214844 304.855469 151.371094 Z M 304.855469 151.371094 " fill-opacity="1" fill-rule="nonzero"/><path fill="#ffffff" d="M 267.472656 230.136719 C 267.472656 226.445312 270.464844 223.449219 274.160156 223.449219 L 575.105469 223.449219 C 578.800781 223.449219 581.792969 226.445312 581.792969 230.136719 L 581.792969 352.738281 C 581.792969 356.433594 578.800781 359.425781 575.105469 359.425781 L 274.160156 359.425781 C 270.464844 359.425781 267.472656 356.433594 267.472656 352.738281 Z M 267.472656 230.136719 " fill-opacity="1" fill-rule="nonzero"/><path fill="#e7e8ff" d="M 265.242188 230.136719 C 265.242188 225.214844 269.234375 221.222656 274.160156 221.222656 L 575.105469 221.222656 C 580.03125 221.222656 584.019531 225.214844 584.019531 230.136719 L 584.019531 352.738281 C 584.019531 357.664062 580.03125 361.65625 575.105469 361.65625 L 274.160156 361.65625 C 269.234375 361.65625 265.242188 357.664062 265.242188 352.738281 Z M 274.160156 225.679688 C 271.695312 225.679688 269.699219 227.675781 269.699219 230.136719 L 269.699219 352.738281 C 269.699219 355.203125 271.695312 357.199219 274.160156 357.199219 L 575.105469 357.199219 C 577.566406 357.199219 579.5625 355.203125 579.5625 352.738281 L 579.5625 230.136719 C 579.5625 227.675781 577.566406 225.679688 575.105469 225.679688 Z M 274.160156 225.679688 " fill-opacity="1" fill-rule="evenodd"/><path fill="#ffffff" d="M 267.472656 412.925781 C 267.472656 409.234375 270.464844 406.238281 274.160156 406.238281 L 575.105469 406.238281 C 578.800781 406.238281 581.792969 409.234375 581.792969 412.925781 L 581.792969 535.527344 C 581.792969 539.222656 578.800781 542.214844 575.105469 542.214844 L 274.160156 542.214844 C 270.464844 542.214844 267.472656 539.222656 267.472656 535.527344 Z M 267.472656 412.925781 " fill-opacity="1" fill-rule="nonzero"/><path fill="#e7e8ff" d="M 265.242188 412.925781 C 265.242188 408.003906 269.234375 404.011719 274.160156 404.011719 L 575.105469 404.011719 C 580.03125 404.011719 584.019531 408.003906 584.019531 412.925781 L 584.019531 535.527344 C 584.019531 540.453125 580.03125 544.445312 575.105469 544.445312 L 274.160156 544.445312 C 269.234375 544.445312 265.242188 540.453125 265.242188 535.527344 Z M 274.160156 408.46875 C 271.695312 408.46875 269.699219 410.464844 269.699219 412.925781 L 269.699219 535.527344 C 269.699219 537.992188 271.695312 539.988281 274.160156 539.988281 L 575.105469 539.988281 C 577.566406 539.988281 579.5625 537.992188 579.5625 535.527344 L 579.5625 412.925781 C 579.5625 410.464844 577.566406 408.46875 575.105469 408.46875 Z M 274.160156 408.46875 " fill-opacity="1" fill-rule="evenodd"/><path fill="#ffffff" d="M 267.472656 595.714844 C 267.472656 592.023438 270.464844 589.027344 274.160156 589.027344 L 575.105469 589.027344 C 578.800781 589.027344 581.792969 592.023438 581.792969 595.714844 L 581.792969 718.316406 C 581.792969 722.011719 578.800781 725.003906 575.105469 725.003906 L 274.160156 725.003906 C 270.464844 725.003906 267.472656 722.011719 267.472656 718.316406 Z M 267.472656 595.714844 " fill-opacity="1" fill-rule="nonzero"/><path fill="#e7e8ff" d="M 265.242188 595.714844 C 265.242188 590.792969 269.234375 586.796875 274.160156 586.796875 L 575.105469 586.796875 C 580.03125 586.796875 584.019531 590.792969 584.019531 595.714844 L 584.019531 718.316406 C 584.019531 723.242188 580.03125 727.234375 575.105469 727.234375 L 274.160156 727.234375 C 269.234375 727.234375 265.242188 723.242188 265.242188 718.316406 Z M 274.160156 591.257812 C 271.695312 591.257812 269.699219 593.25 269.699219 595.714844 L 269.699219 718.316406 C 269.699219 720.777344 271.695312 722.773438 274.160156 722.773438 L 575.105469 722.773438 C 577.566406 722.773438 579.5625 720.777344 579.5625 718.316406 L 579.5625 595.714844 C 579.5625 593.25 577.566406 591.257812 575.105469 591.257812 Z M 274.160156 591.257812 " fill-opacity="1" fill-rule="evenodd"/><path fill="#032068" d="M 305.367188 265.804688 C 305.367188 262.109375 308.359375 259.117188 312.054688 259.117188 L 365.554688 259.117188 C 369.25 259.117188 372.242188 262.109375 372.242188 265.804688 L 372.242188 317.074219 C 372.242188 320.769531 369.25 323.761719 365.554688 323.761719 L 312.054688 323.761719 C 308.359375 323.761719 305.367188 320.769531 305.367188 317.074219 Z M 305.367188 265.804688 " fill-opacity="1" fill-rule="nonzero"/><path fill="#032068" d="M 305.367188 631.382812 C 305.367188 627.6875 308.359375 624.695312 312.054688 624.695312 L 365.554688 624.695312 C 369.25 624.695312 372.242188 627.6875 372.242188 631.382812 L 372.242188 682.652344 C 372.242188 686.34375 369.25 689.339844 365.554688 689.339844 L 312.054688 689.339844 C 308.359375 689.339844 305.367188 686.34375 305.367188 682.652344 Z M 305.367188 631.382812 " fill-opacity="1" fill-rule="nonzero"/><path fill="#032068" d="M 303.140625 448.59375 C 303.140625 443.667969 307.128906 439.675781 312.054688 439.675781 L 365.558594 439.675781 C 370.480469 439.675781 374.476562 443.667969 374.476562 448.59375 L 374.476562 499.863281 C 374.476562 504.789062 370.480469 508.777344 365.558594 508.777344 L 312.054688 508.777344 C 307.128906 508.777344 303.140625 504.789062 303.140625 499.863281 Z M 312.054688 444.132812 C 309.59375 444.132812 307.597656 446.128906 307.597656 448.59375 L 307.597656 499.863281 C 307.597656 502.324219 309.59375 504.320312 312.054688 504.320312 L 365.558594 504.320312 C 368.019531 504.320312 370.015625 502.324219 370.015625 499.863281 L 370.015625 448.59375 C 370.015625 446.128906 368.019531 444.132812 365.558594 444.132812 Z M 312.054688 444.132812 " fill-opacity="1" fill-rule="evenodd"/><path fill="#ffffff" d="M 341.996094 151.371094 C 341.996094 157.523438 337.007812 162.511719 330.851562 162.511719 C 324.699219 162.511719 319.710938 157.523438 319.710938 151.371094 C 319.710938 145.214844 324.699219 140.226562 330.851562 140.226562 C 337.007812 140.226562 341.996094 145.214844 341.996094 151.371094 Z M 341.996094 151.371094 " fill-opacity="1" fill-rule="nonzero"/><path fill="#f4ad5e" d="M 407.910156 278.0625 C 407.910156 274.988281 410.40625 272.492188 413.484375 272.492188 L 536.09375 272.492188 C 539.171875 272.492188 541.664062 274.988281 541.664062 278.0625 C 541.664062 281.140625 539.171875 283.636719 536.09375 283.636719 L 413.484375 283.636719 C 410.40625 283.636719 407.910156 281.140625 407.910156 278.0625 Z M 407.910156 278.0625 " fill-opacity="1" fill-rule="nonzero"/><path fill="#f4ad5e" d="M 407.910156 460.851562 C 407.910156 457.773438 410.40625 455.28125 413.484375 455.28125 L 536.09375 455.28125 C 539.171875 455.28125 541.664062 457.773438 541.664062 460.851562 C 541.664062 463.929688 539.171875 466.425781 536.09375 466.425781 L 413.484375 466.425781 C 410.40625 466.425781 407.910156 463.929688 407.910156 460.851562 Z M 407.910156 460.851562 " fill-opacity="1" fill-rule="nonzero"/><path fill="#f4ad5e" d="M 407.910156 643.640625 C 407.910156 640.5625 410.40625 638.070312 413.484375 638.070312 L 536.09375 638.070312 C 539.171875 638.070312 541.664062 640.5625 541.664062 643.640625 C 541.664062 646.71875 539.171875 649.214844 536.09375 649.214844 L 413.484375 649.214844 C 410.40625 649.214844 407.910156 646.71875 407.910156 643.640625 Z M 407.910156 643.640625 " fill-opacity="1" fill-rule="nonzero"/><path fill="#e7e8ff" d="M 407.910156 304.8125 C 407.910156 301.734375 410.40625 299.242188 413.484375 299.242188 L 449.152344 299.242188 C 452.230469 299.242188 454.726562 301.734375 454.726562 304.8125 C 454.726562 307.894531 452.230469 310.386719 449.152344 310.386719 L 413.484375 310.386719 C 410.40625 310.386719 407.910156 307.894531 407.910156 304.8125 Z M 407.910156 304.8125 " fill-opacity="1" fill-rule="nonzero"/><path fill="#e7e8ff" d="M 407.910156 487.601562 C 407.910156 484.523438 410.40625 482.03125 413.484375 482.03125 L 493.738281 482.03125 C 496.816406 482.03125 499.308594 484.523438 499.308594 487.601562 C 499.308594 490.679688 496.816406 493.175781 493.738281 493.175781 L 413.484375 493.175781 C 410.40625 493.175781 407.910156 490.679688 407.910156 487.601562 Z M 407.910156 487.601562 " fill-opacity="1" fill-rule="nonzero"/><path fill="#e7e8ff" d="M 407.910156 670.390625 C 407.910156 667.3125 410.40625 664.816406 413.484375 664.816406 L 524.945312 664.816406 C 528.023438 664.816406 530.519531 667.3125 530.519531 670.390625 C 530.519531 673.46875 528.023438 675.964844 524.945312 675.964844 L 413.484375 675.964844 C 410.40625 675.964844 407.910156 673.46875 407.910156 670.390625 Z M 407.910156 670.390625 " fill-opacity="1" fill-rule="nonzero"/><path fill="#ffffff" d="M 363.5 282.535156 L 331.851562 310.226562 L 317.34375 289.921875 L 324.601562 284.738281 L 333.382812 297.035156 L 357.628906 275.824219 Z M 363.5 282.535156 " fill-opacity="1" fill-rule="evenodd"/><path fill="#ffffff" d="M 363.5 648.113281 L 331.851562 675.804688 L 317.34375 655.496094 L 324.601562 650.316406 L 333.382812 662.609375 L 357.628906 641.398438 Z M 363.5 648.113281 " fill-opacity="1" fill-rule="evenodd"/><path fill="#ffffff" d="M 649.472656 319.59375 C 650.246094 316.578125 653.316406 314.761719 656.332031 315.535156 L 788.96875 349.550781 C 791.984375 350.320312 793.800781 353.390625 793.027344 356.40625 L 764.269531 468.53125 C 763.5 471.542969 760.425781 473.363281 757.414062 472.589844 L 624.777344 438.574219 C 621.761719 437.804688 619.945312 434.730469 620.71875 431.71875 Z M 649.472656 319.59375 " fill-opacity="1" fill-rule="nonzero"/><path fill="#032068" d="M 647.652344 319.128906 C 648.683594 315.105469 652.777344 312.6875 656.796875 313.714844 L 789.433594 347.730469 C 793.453125 348.761719 795.875 352.855469 794.84375 356.875 L 766.089844 468.996094 C 765.058594 473.015625 760.964844 475.4375 756.945312 474.410156 L 624.308594 440.394531 C 620.289062 439.363281 617.867188 435.269531 618.898438 431.25 Z M 655.863281 317.355469 C 653.855469 316.839844 651.804688 318.050781 651.292969 320.058594 L 622.535156 432.183594 C 622.019531 434.195312 623.230469 436.242188 625.242188 436.753906 L 757.878906 470.769531 C 759.886719 471.285156 761.9375 470.074219 762.449219 468.066406 L 791.207031 355.941406 C 791.722656 353.929688 790.511719 351.882812 788.5 351.367188 Z M 655.863281 317.355469 " fill-opacity="1" fill-rule="evenodd"/><path fill="#032068" d="M 648.378906 288.351562 C 649.152344 285.335938 652.222656 283.519531 655.234375 284.292969 L 804.964844 322.691406 C 807.976562 323.460938 809.796875 326.53125 809.019531 329.546875 L 801.300781 359.644531 C 800.53125 362.660156 797.457031 364.476562 794.445312 363.703125 L 644.71875 325.304688 C 641.703125 324.535156 639.886719 321.464844 640.65625 318.449219 Z M 648.378906 288.351562 " fill-opacity="1" fill-rule="nonzero"/><path fill="#e7e8ff" d="M 686.941406 280.027344 C 687.714844 277.011719 690.785156 275.195312 693.796875 275.96875 L 696.554688 276.675781 C 699.570312 277.449219 701.386719 280.519531 700.613281 283.53125 L 692.894531 313.632812 C 692.121094 316.644531 689.050781 318.460938 686.035156 317.6875 L 683.28125 316.980469 C 680.265625 316.207031 678.449219 313.140625 679.222656 310.125 Z M 686.941406 280.027344 " fill-opacity="1" fill-rule="nonzero"/><path fill="#e7e8ff" d="M 765.554688 300.183594 C 766.328125 297.171875 769.394531 295.355469 772.410156 296.128906 L 775.167969 296.835938 C 778.183594 297.609375 780 300.679688 779.226562 303.691406 L 771.507812 333.792969 C 770.734375 336.804688 767.664062 338.621094 764.648438 337.847656 L 761.890625 337.140625 C 758.878906 336.371094 757.0625 333.296875 757.835938 330.285156 Z M 765.554688 300.183594 " fill-opacity="1" fill-rule="nonzero"/><path fill="#f4ad5e" d="M 681.136719 425.710938 L 666.199219 421.878906 L 678.507812 373.890625 L 662.722656 374.453125 L 665.652344 363.035156 L 696.421875 360.421875 L 697.792969 360.773438 Z M 681.136719 425.710938 " fill-opacity="1" fill-rule="nonzero"/><path fill="#f4ad5e" d="M 733.554688 439.152344 L 718.617188 435.320312 L 730.925781 387.332031 L 715.140625 387.894531 L 718.070312 376.476562 L 748.839844 373.863281 L 750.210938 374.214844 Z M 733.554688 439.152344 " fill-opacity="1" fill-rule="nonzero"/><path fill="#ffffff" d="M 250.945312 417.726562 C 238.714844 441.105469 217.65625 479.5625 212.386719 489.398438 C 211.820312 490.460938 212.449219 491.746094 213.632812 491.972656 L 280.320312 504.671875 C 281.136719 504.828125 281.953125 504.410156 282.308594 503.660156 L 318.636719 426.753906 C 319.167969 425.625 318.433594 424.308594 317.195312 424.167969 L 252.761719 416.773438 C 252.015625 416.6875 251.296875 417.058594 250.945312 417.726562 Z M 250.945312 417.726562 " fill-opacity="1" fill-rule="nonzero"/><path fill="#032068" d="M 252.550781 418.582031 C 243.773438 435.363281 230.441406 459.921875 221.671875 476.074219 C 218.246094 482.382812 215.515625 487.410156 214.027344 490.191406 L 280.660156 502.882812 L 316.984375 425.976562 L 252.554688 418.582031 C 252.554688 418.582031 252.550781 418.582031 252.550781 418.582031 Z M 249.328125 416.882812 C 250.035156 415.53125 251.488281 414.796875 252.96875 414.964844 L 317.402344 422.355469 C 319.878906 422.640625 321.347656 425.277344 320.28125 427.53125 L 283.953125 504.4375 C 283.242188 505.9375 281.609375 506.769531 279.976562 506.460938 L 213.292969 493.761719 C 210.921875 493.308594 209.617188 490.710938 210.78125 488.539062 C 212.277344 485.746094 215.035156 480.660156 218.5 474.277344 C 227.273438 458.121094 240.5625 433.636719 249.328125 416.882812 Z M 249.328125 416.882812 " fill-opacity="1" fill-rule="evenodd"/><path fill="#032068" d="M 293.765625 439.671875 L 260.222656 435.203125 L 260.703125 431.59375 L 294.246094 436.0625 Z M 288.175781 449.734375 L 254.632812 445.261719 L 255.113281 441.652344 L 288.65625 446.125 Z M 288.175781 449.734375 " fill-opacity="1" fill-rule="evenodd"/><path fill="#efcb96" d="M 148.585938 385.011719 L 142.542969 416.414062 C 145.363281 419.636719 154.382812 426.320312 167.914062 427.285156 C 181.445312 428.25 193.6875 422.050781 198.121094 418.832031 L 194.496094 389.84375 C 215.03125 378.972656 207.785156 337.90625 198.121094 323.414062 C 188.453125 308.921875 148.585938 306.503906 138.921875 340.324219 C 131.1875 367.378906 142.140625 381.386719 148.585938 385.011719 Z M 148.585938 385.011719 " fill-opacity="1" fill-rule="nonzero"/><path fill="#f4ad5e" d="M 67.523438 439.390625 C 101.351562 404.605469 142.429688 405.574219 181.089844 405.574219 C 265.65625 405.574219 298.480469 470.285156 311.894531 491.523438 C 326.429688 522.816406 354.382812 589.882812 332.019531 613.359375 C 323.824219 621.960938 310.777344 629.003906 296.242188 625.652344 C 297.851562 665.511719 301.175781 717.429688 293.445312 728.058594 C 283.78125 741.34375 272.90625 746.175781 212.5 752.210938 C 159.070312 757.554688 67.832031 749.667969 42.453125 743.59375 C 32.035156 741.652344 31.796875 680.53125 32.984375 650.210938 C 1.722656 650.210938 0.296875 613.535156 3.492188 595.199219 C 4.699219 573.457031 25.238281 482.871094 67.523438 439.390625 Z M 67.523438 439.390625 " fill-opacity="1" fill-rule="nonzero"/><path fill="#032068" d="M 47.1875 514.070312 C 39.609375 545.324219 34.558594 617.855469 32.980469 650.210938 L 25.875 650.210938 C 30.609375 587.46875 40.875 533.410156 47.1875 514.070312 Z M 47.1875 514.070312 " fill-opacity="1" fill-rule="nonzero"/><path fill="#032068" d="M 236.980469 587.648438 C 250.511719 601.175781 282.457031 618.808594 297.355469 625.652344 L 297.355469 641.300781 C 283.828125 636.46875 251.882812 603.753906 236.980469 587.648438 Z M 236.980469 587.648438 " fill-opacity="1" fill-rule="nonzero"/><path fill="#032068" d="M 144.550781 388.769531 C 149.289062 393.507812 168.628906 393.113281 180.078125 391.140625 C 185.996094 390.222656 190.734375 371.015625 187.183594 367.460938 C 172.972656 362.726562 178.894531 347.335938 184.8125 346.152344 C 190.734375 344.96875 190.734375 361.542969 193.101562 359.175781 C 195.472656 356.808594 194.289062 344.96875 196.65625 340.234375 C 199.023438 335.5 203.761719 331.949219 213.234375 328.394531 C 235.730469 319.960938 226.257812 287.574219 183.628906 290.511719 C 149.289062 292.882812 144.550781 313.007812 142.183594 313.007812 C 139.8125 313.007812 129.15625 316.558594 126.789062 335.5 C 124.421875 354.441406 138.632812 382.851562 144.550781 388.769531 Z M 144.550781 388.769531 " fill-opacity="1" fill-rule="nonzero"/><path fill="#032068" d="M 2.191406 609.960938 C 11.664062 612.332031 31.082031 623.695312 32.976562 650.210938 C 23.503906 651.003906 3.375 649.03125 2.191406 609.960938 Z M 2.191406 609.960938 " fill-opacity="1" fill-rule="nonzero"/><path fill="#032068" d="M 340.960938 585.414062 C 306.078125 588.988281 290.648438 613.730469 286.179688 625.652344 C 292.886719 629.007812 308.539062 633.476562 326.425781 620.0625 C 340.738281 609.332031 341.335938 592.492188 340.960938 585.414062 Z M 340.960938 585.414062 " fill-opacity="1" fill-rule="nonzero"/></svg>